<svg id="Layer_1" data-name="Layer 1" xmlns="http://www.w3.org/2000/svg" viewBox="0 0 1361.64 384.56"><title>Kuber</title><path d="M239.34,387.26l-190.76-171v171H2V28H48.58V183.85L205.44,28h61.22l-171,171,210,188.23Z" transform="translate(-2.03 -7.76)"/><path d="M413.4,392.32q-41.49,0-67.29-28.09T320.3,289.6V134.26h43.52V283q0,31.88,15.43,50.6T421,352.34q30.36,0,50.35-25t20-67.55V134.26h43.51v253H491.33v-39Q466.54,392.31,413.4,392.32Z" transform="translate(-2.03 -7.76)"/><path d="M749.39,392.32a111.54,111.54,0,0,1-51.87-12.4q-24-12.39-37.19-31.62v39H616.81V7.76h43.52V173.22q13.15-19.23,37.19-31.63a111.54,111.54,0,0,1,51.87-12.39q52.62,0,88.29,38.45t35.68,93.11q0,54.64-35.68,93.1T749.39,392.32ZM681.08,326q24.28,26.33,61.73,26.31T804.54,326q24.29-26.29,24.29-65.27t-24.29-65.28q-24.28-26.29-61.73-26.31t-61.73,26.31q-24.3,26.33-24.29,65.28T681.08,326Z" transform="translate(-2.03 -7.76)"/><path d="M1046.91,392.32q-58.2,0-94.62-37.45t-36.44-94.11q0-56.17,36.94-93.86t94.62-37.7q51.1,0,85.77,34.15t34.66,92.85q0,7.59-.5,13.16H959.88q1,35.43,25.55,59.2t62,23.78q53.13,0,78.94-44l34.41,23.78Q1123.82,392.33,1046.91,392.32Zm-84-158.38h160.4q-5.05-30.36-26.56-48.32t-50.85-18a85.73,85.73,0,0,0-53.39,18Q969,203.58,962.91,233.94Z" transform="translate(-2.03 -7.76)"/><path d="M1229.57,387.26v-253h43.52v49.08a68.73,68.73,0,0,1,27.58-37.44q20.49-14.16,43.26-14.17a87.22,87.22,0,0,1,19.73,2v45q-9.11-4-23.78-4-26.31,0-46.55,22.77t-20.24,64.26V387.26Z" transform="translate(-2.03 -7.76)"/></svg>